<svg  viewBox="0 0 128 128" fill="none" xmlns="http://www.w3.org/2000/svg">
<path d="M110.377 31.9086L95.1771 94.9714C94.2628 98.7657 88.5943 102.434 83.7486 101.28C78.9257 100.137 76.7771 94.5829 77.6914 90.7771L94.8343 19.1086M17.6571 31.8172L32.8228 94.9714C33.7371 98.7657 39.0171 102.434 43.84 101.28C48.6628 100.137 51.2 94.5829 50.2857 90.7771L33.1429 19.12M38.8571 100.743C43.5771 102.251 48.3771 100.457 49.5657 96.72L72.8114 53.7143C73.9543 49.9886 71.3371 45.2114 66.6171 43.7029C64.5523 42.9923 62.2983 43.0654 60.2839 43.9083C58.2694 44.7512 56.635 46.305 55.6914 48.2743L44.88 68.2514M83.1086 68.2057L72.2971 48.2172C70.5714 45.36 66 42.1143 61.28 43.6457C56.5486 45.1543 54 49.9657 55.1886 53.6914L78.48 96.72C79.6228 100.457 84.4571 102.251 89.1886 100.743M64 120C75.0757 120 85.9028 116.716 95.1119 110.562C104.321 104.409 111.499 95.6629 115.737 85.4303C119.976 75.1976 121.085 63.9379 118.924 53.075C116.763 42.212 111.43 32.2338 103.598 24.402C95.7662 16.5703 85.788 11.2368 74.9251 9.07605C64.0621 6.91527 52.8024 8.02427 42.5697 12.2628C32.3371 16.5013 23.5911 23.6789 17.4377 32.8881C11.2843 42.0972 8 52.9243 8 64C8 78.8521 13.9 93.0959 24.402 103.598C34.904 114.1 49.1479 120 64 120Z" stroke="url(#paint0_linear_222_8)" stroke-width="4" stroke-miterlimit="10"/>
<defs>
<linearGradient id="paint0_linear_222_8" x1="122.229" y1="64.0572" x2="5.77142" y2="64.0571" gradientUnits="userSpaceOnUse">
<stop stop-color="#3FE9C0"/>
<stop offset="1" stop-color="#FF87B2"/>
</linearGradient>
</defs>
</svg>
